<svg width="22" height="18" viewBox="0 0 22 18" fill="none" xmlns="http://www.w3.org/2000/svg">
<path d="M1.39823 8.57534L19.4612 8.57534L12.5956 1.70968C12.4735 1.58763 12.405 1.4221 12.405 1.24951C12.405 1.07691 12.4735 0.911387 12.5956 0.789344C12.7176 0.6673 12.8832 0.598737 13.0557 0.598737C13.2283 0.598737 13.3939 0.667301 13.5159 0.789344L21.4921 8.76554C21.6142 8.88758 21.6827 9.05311 21.6827 9.22571C21.6827 9.3983 21.6142 9.56383 21.4921 9.68587L13.5159 17.6621C13.3939 17.7841 13.2283 17.8527 13.0557 17.8527C12.8831 17.8527 12.7176 17.7841 12.5956 17.6621C12.4735 17.54 12.405 17.3745 12.405 17.2019C12.405 17.0293 12.4735 16.8638 12.5956 16.7417L19.4612 9.87607L1.39823 9.87608C1.22971 9.87013 1.07008 9.799 0.952973 9.67768C0.835862 9.55637 0.770413 9.39433 0.770413 9.22571C0.770413 9.05709 0.835863 8.89505 0.952974 8.77373C1.07008 8.65241 1.22971 8.58129 1.39823 8.57534Z" fill="#141414"/>
</svg>
