<svg width="35" height="29" viewBox="0 0 35 29" fill="none" xmlns="http://www.w3.org/2000/svg">
<path d="M1.15709 13.2993L30.9611 13.2993L19.6327 1.97095C19.4313 1.76958 19.3182 1.49646 19.3182 1.21168C19.3182 0.926897 19.4314 0.653777 19.6327 0.452405C19.8341 0.251034 20.1072 0.137904 20.392 0.137904C20.6768 0.137904 20.9499 0.251035 21.1513 0.452407L34.312 13.6131C34.5134 13.8145 34.6265 14.0876 34.6265 14.3724C34.6265 14.6572 34.5134 14.9303 34.312 15.1317L21.1513 28.2924C20.9499 28.4938 20.6768 28.6069 20.392 28.6069C20.1072 28.6069 19.8341 28.4938 19.6327 28.2924C19.4313 28.091 19.3182 27.8179 19.3182 27.5331C19.3182 27.2483 19.4313 26.9752 19.6327 26.7739L30.9611 15.4455L1.15709 15.4455C0.879038 15.4357 0.615651 15.3183 0.422418 15.1182C0.229186 14.918 0.121193 14.6506 0.121193 14.3724C0.121194 14.0942 0.229186 13.8268 0.42242 13.6266C0.615651 13.4265 0.879036 13.3091 1.15709 13.2993Z" fill="#2ED7DF"/>
</svg>
